HIERARCHY
ROOT Hips
{
	OFFSET 0.000000 0.000000 0.000000
	CHANNELS 6 Xposition Yposition Zposition Xrotation Yrotation Zrotation
	JOINT LeftUpLeg_virtual
	{
		OFFSET 0.000000 0.000000 0.000000
		CHANNELS 3 Xrotation Yrotation Zrotation
		JOINT LeftUpLeg
		{
			OFFSET 11.394100 -6.187798 -0.413800
			CHANNELS 3 Xrotation Yrotation Zrotation
			JOINT LeftLeg
			{
				OFFSET 0.430247 -32.302673 3.732800
				CHANNELS 3 Xrotation Yrotation Zrotation
				JOINT LeftFoot
				{
					OFFSET -0.430247 -48.264931 -6.423300
					CHANNELS 3 Xrotation Yrotation Zrotation
					JOINT LeftToeBase
					{
						OFFSET 4.230900 -16.068199 23.438400
						CHANNELS 3 Xrotation Yrotation Zrotation
						JOINT LeftToe_End
						{
							OFFSET 4.510700 0.695400 19.974600
							CHANNELS 3 Xrotation Yrotation Zrotation
							End Site
							{
								OFFSET 0 0 0
							}
						}
					}
				}
			}
		}
	}
	JOINT RightUpLeg_virtual
	{
		OFFSET 0.000000 0.000000 0.000000
		CHANNELS 3 Xrotation Yrotation Zrotation
		JOINT RightUpLeg
		{
			OFFSET -11.333700 -6.187798 -0.413800
			CHANNELS 3 Xrotation Yrotation Zrotation
			JOINT RightLeg
			{
				OFFSET -0.430392 -32.302628 3.733000
				CHANNELS 3 Xrotation Yrotation Zrotation
				JOINT RightFoot
				{
					OFFSET 0.430392 -48.264973 -6.423500
					CHANNELS 3 Xrotation Yrotation Zrotation
					JOINT RightToeBase
					{
						OFFSET -4.230900 -16.068199 23.438400
						CHANNELS 3 Xrotation Yrotation Zrotation
						JOINT RightToe_End
						{
							OFFSET -4.510700 0.695400 19.974600
							CHANNELS 3 Xrotation Yrotation Zrotation
							End Site
							{
								OFFSET 0 0 0
							}
						}
					}
				}
			}
		}
	}
	JOINT Spine_virtual
	{
		OFFSET 0.000000 0.000000 0.000000
		CHANNELS 3 Xrotation Yrotation Zrotation
		JOINT Spine
		{
			OFFSET -0.002400 12.777504 0.315300
			CHANNELS 3 Xrotation Yrotation Zrotation
			JOINT Spine1
			{
				OFFSET -0.002067 5.816869 0.032633
				CHANNELS 3 Xrotation Yrotation Zrotation
				JOINT Spine1_split
				{
					OFFSET -0.002067 5.816869 0.032633
					CHANNELS 3 Xrotation Yrotation Zrotation
					JOINT Spine2
					{
						OFFSET -0.002067 5.816869 0.032633
						CHANNELS 3 Xrotation Yrotation Zrotation
						JOINT Neck_virtual
						{
							OFFSET 0.000000 0.000000 0.000000
							CHANNELS 3 Xrotation Yrotation Zrotation
							JOINT Neck
							{
								OFFSET -0.003700 21.199493 -0.826900
								CHANNELS 3 Xrotation Yrotation Zrotation
								JOINT Head
								{
									OFFSET 0.000000 20.442200 4.834800
									CHANNELS 3 Xrotation Yrotation Zrotation
									JOINT HeadTop_End
									{
										OFFSET 0.000000 34.668396 4.968400
										CHANNELS 3 Xrotation Yrotation Zrotation
										End Site
										{
											OFFSET 0 0 0
										}
									}
								}
							}
						}
						JOINT LeftShoulder_virtual
						{
							OFFSET 0.000000 0.000000 0.000000
							CHANNELS 3 Xrotation Yrotation Zrotation
							JOINT LeftShoulder
							{
								OFFSET 3.288150 8.794197 -1.372250
								CHANNELS 3 Xrotation Yrotation Zrotation
								JOINT LeftShoulder_split
								{
									OFFSET 3.288150 8.794197 -1.372250
									CHANNELS 3 Xrotation Yrotation Zrotation
									JOINT LeftArm
									{
										OFFSET 11.953299 -2.279007 -0.146200
										CHANNELS 3 Xrotation Yrotation Zrotation
										JOINT LeftForeArm
										{
											OFFSET 18.448900 0.000000 0.000000
											CHANNELS 3 Xrotation Yrotation Zrotation
											JOINT LeftHand
											{
												OFFSET 29.527798 0.000000 0.000000
												CHANNELS 3 Xrotation Yrotation Zrotation
												End Site
												{
													OFFSET 0 0 0
												}
											}
										}
									}
								}
							}
						}
						JOINT RightShoulder_virtual
						{
							OFFSET 0.000000 0.000000 0.000000
							CHANNELS 3 Xrotation Yrotation Zrotation
							JOINT RightShoulder
							{
								OFFSET -3.249400 8.794197 -1.372250
								CHANNELS 3 Xrotation Yrotation Zrotation
								JOINT RightShoulder_split
								{
									OFFSET -3.249400 8.794197 -1.372250
									CHANNELS 3 Xrotation Yrotation Zrotation
									JOINT RightArm
									{
										OFFSET -11.953299 -2.279007 -0.146200
										CHANNELS 3 Xrotation Yrotation Zrotation
										JOINT RightForeArm
										{
											OFFSET -18.448900 0.000000 0.000000
											CHANNELS 3 Xrotation Yrotation Zrotation
											JOINT RightHand
											{
												OFFSET -29.527802 0.000000 0.000000
												CHANNELS 3 Xrotation Yrotation Zrotation
												End Site
												{
													OFFSET 0 0 0
												}
											}
										}
									}
								}
							}
						}
					}
				}
			}
		}
	}
}
MOTION
Frames: 6
Frame Time: 0.03333333
-0.236934 105.747429 -17.873531 0.000000 0.000000 0.000000 -3.984257 6.196390 5.015609 -9.408136 21.222894 -2.231859 8.602500 3.020701 4.532883 2.934000 2.073936 -2.008930 -1.316665 -2.751284 0.214592 0.000000 0.000000 0.000000 -3.622038 5.422118 4.835254 -9.275182 -8.396774 -3.602139 13.849304 3.248086 -4.459111 -3.407109 -15.148335 11.233170 3.186343 7.850485 -25.264093 0.000000 0.000000 0.000000 -6.266340 14.557160 5.682825 8.502866 -6.534645 -1.528866 8.961004 3.439891 -3.155007 0.047657 -0.757862 -0.102509 0.000000 0.000000 0.000000 8.551904 5.903477 -1.756917 8.426463 5.961225 11.019971 18.029241 -57.274008 2.183407 0.000000 0.000000 0.000000 8.588860 5.425872 -2.750039 1.125804 -11.790556 -23.090240 6.110871 -9.731593 -5.511485 -4.627368 -48.955599 -38.636184 12.109483 -19.960782 8.749978 0.000000 0.000000 0.000000 7.744578 3.390048 -3.371819 -1.348841 20.463639 24.693485 -3.685322 -0.919373 5.031805 5.250423 40.159682 40.526798 11.125783 35.025227 3.867687 0.000000 0.000000 0.000000 
0.365681 106.561630 -18.029972 0.000000 0.000000 0.000000 -4.993418 4.508656 5.892220 -5.931645 22.519636 -3.491720 5.744992 3.068667 4.191503 3.090252 2.539170 -2.325110 -0.115929 -2.554994 0.080849 0.000000 0.000000 0.000000 -4.607795 4.711636 5.654515 -7.137575 -9.288221 -4.275628 11.582359 3.688809 -4.246703 -4.063725 -14.641303 9.761031 3.911296 7.247959 -24.584682 0.000000 0.000000 0.000000 -7.601448 13.601257 6.145511 8.253484 -6.419889 -2.071620 7.752149 2.539171 -3.359427 0.126492 -0.736864 0.039081 0.000000 0.000000 0.000000 7.455994 5.050826 -1.714468 7.706245 6.373063 9.576204 15.112186 -50.886637 1.965220 0.000000 0.000000 0.000000 7.310196 4.682272 -2.656529 1.929477 -8.366672 -20.286893 5.399723 -8.988157 -4.073054 -5.353528 -46.518888 -43.846690 13.504663 -18.337403 10.485381 0.000000 0.000000 0.000000 6.356934 2.405386 -3.328486 -0.100264 18.537946 22.532273 -4.354219 -1.532036 4.038257 9.558359 43.357621 40.715485 13.313280 37.274026 2.497793 0.000000 0.000000 0.000000 
0.831145 106.988922 -18.107655 0.000000 0.000000 0.000000 -5.623810 2.986058 6.583432 -3.439579 23.139824 -4.384047 3.982533 3.108452 3.866921 3.214570 2.875462 -2.475301 0.703460 -2.322684 -0.346557 0.000000 0.000000 0.000000 -5.382174 4.136989 6.380636 -6.102801 -10.168985 -5.004158 10.392658 4.223236 -4.022694 -4.192720 -14.399536 9.681224 3.856613 6.874637 -24.777368 0.000000 0.000000 0.000000 -8.217601 12.806754 6.297549 7.852770 -6.223263 -2.489227 6.664525 1.805680 -3.552145 0.135439 -0.648943 0.155313 0.000000 0.000000 0.000000 6.571339 4.367643 -1.739031 7.360699 6.309296 8.322647 10.604763 -45.845934 0.859699 0.000000 0.000000 0.000000 6.179279 4.071047 -2.639811 2.514736 -5.943198 -16.796799 5.063657 -8.545298 -2.612856 -4.143501 -42.697842 -47.272214 16.081277 -18.840223 12.303770 0.000000 0.000000 0.000000 4.952381 1.625548 -3.237220 1.173277 15.930998 19.780597 -4.711987 -2.248283 3.039370 12.705164 44.829154 41.006034 14.687214 40.960822 1.908258 0.000000 0.000000 0.000000 
1.143293 107.098373 -18.187984 0.000000 0.000000 0.000000 -6.042842 1.887196 7.029088 -2.241252 23.168198 -4.736837 3.441504 3.025717 3.591452 3.504476 2.930682 -2.674198 0.882864 -2.051921 -1.170608 0.000000 0.000000 0.000000 -5.959977 3.666711 6.900120 -5.961515 -10.748964 -5.718158 10.045590 4.951946 -3.835953 -3.857030 -14.286017 10.900762 3.149999 6.706952 -25.471512 0.000000 0.000000 0.000000 -8.259472 12.061913 6.224955 7.289624 -5.855220 -2.578445 5.759767 1.327018 -3.744791 0.155800 -0.614616 0.215177 0.000000 0.000000 0.000000 5.922892 3.929155 -1.851135 7.062770 5.807794 7.386888 4.745165 -41.947941 -1.305257 0.000000 0.000000 0.000000 5.281470 3.621195 -2.800616 2.896683 -4.787586 -13.162811 4.654259 -8.307802 -1.892817 -2.137390 -37.299287 -49.377155 19.750373 -20.531088 14.119794 0.000000 0.000000 0.000000 3.682571 1.183112 -3.147921 2.244174 13.062933 16.820036 -5.436224 -2.925084 2.556209 14.329479 44.552682 41.442863 14.975542 44.042303 2.453841 0.000000 0.000000 0.000000 
1.449213 106.975418 -18.220592 0.000000 0.000000 0.000000 -6.330560 1.375335 7.207575 -2.100402 22.809487 -4.698440 3.810490 2.965288 3.425081 3.811482 2.789581 -2.711084 0.605172 -1.778406 -2.059598 0.000000 0.000000 0.000000 -6.330074 3.215980 7.143539 -6.253751 -10.962836 -6.290455 10.290551 5.575060 -3.707653 -3.582033 -14.394511 12.413396 3.224651 6.436280 -26.217432 0.000000 0.000000 0.000000 -7.919744 11.329225 6.064005 6.610133 -5.321006 -2.292431 5.074658 1.092976 -3.932462 0.125320 -0.652040 0.217748 0.000000 0.000000 0.000000 5.506359 3.703112 -2.038446 6.599669 4.959727 6.744710 -1.873380 -38.842664 -4.429528 0.000000 0.000000 0.000000 4.572871 3.329068 -3.144310 3.117680 -4.816910 -10.142517 3.850203 -7.910267 -1.542802 -0.665442 -30.513781 -50.936733 24.100398 -21.734145 15.613172 0.000000 0.000000 0.000000 2.694251 1.072437 -3.073449 2.943748 10.303033 14.048207 -6.408805 -3.175151 2.924005 14.661927 42.873248 41.759770 14.088559 45.086509 4.256249 0.000000 0.000000 0.000000 
1.689176 106.716232 -18.187229 0.000000 0.000000 0.000000 -6.538983 1.390037 7.155189 -2.778545 22.337695 -4.356176 4.677797 2.923756 3.333248 4.208799 2.490038 -2.767263 0.591449 -1.504095 -2.942698 0.000000 0.000000 0.000000 -6.514329 2.850423 7.133316 -6.596963 -10.763414 -6.584944 10.802631 5.892028 -3.622386 -3.958851 -14.843321 13.431393 4.819765 5.881625 -26.708847 0.000000 0.000000 0.000000 -7.477279 10.661412 5.909450 5.778876 -4.676203 -1.732230 4.616871 1.035295 -4.079063 0.117932 -0.683963 0.176899 0.000000 0.000000 0.000000 5.207536 3.602390 -2.249831 5.965110 3.812530 6.274550 -8.224682 -36.100316 -7.968130 0.000000 0.000000 0.000000 4.043190 3.119373 -3.596305 3.234244 -5.901517 -8.073749 3.009209 -7.384402 -1.334429 -0.485585 -22.509638 -52.535407 28.127964 -21.366042 16.236736 0.000000 0.000000 0.000000 2.100300 1.187591 -3.003978 3.297429 7.986997 11.925680 -7.410366 -3.158926 3.963366 13.807844 40.319232 41.976198 12.630600 44.348920 6.770559 0.000000 0.000000 0.000000 
